<svg version="1.1" id="Layer_1" xmlns="http://www.w3.org/2000/svg" xmlns:xlink="http://www.w3.org/1999/xlink" x="0px" y="0px"
	 width="100%" viewBox="0 0 398 126" enable-background="new 0 0 398 126" xml:space="preserve">
<path fill="#FEFEFE" opacity="1.000000" stroke="none" 
	d="
M343.000000,127.000000 
	C314.312439,127.000000 285.624878,127.000000 256.663330,126.668388 
	C282.317505,121.929108 300.217255,98.405937 296.838135,73.180565 
	C293.311890,46.856613 269.675537,28.675919 243.096741,31.843601 
	C220.231674,34.568680 202.497879,53.294075 201.058517,76.232468 
	C199.653046,98.630295 214.668518,119.332710 236.495850,125.144737 
	C238.362854,125.641869 240.166779,126.375977 242.000000,127.000000 
	C213.312439,127.000000 184.624878,127.000000 155.684677,126.681091 
	C157.057358,126.040634 158.703552,125.799713 160.304871,125.385353 
	C182.350052,119.680847 196.508255,101.354279 196.760620,77.642380 
	C196.985779,56.486927 196.698715,35.326183 196.894684,14.170155 
	C196.948914,8.313786 195.381821,3.780095 190.000000,1.000000 
	C259.557678,1.000000 329.115326,1.000000 399.000000,1.000000 
	C399.000000,24.353210 399.000000,47.707947 398.672791,71.331345 
	C393.640076,44.496056 367.951691,26.765905 341.311371,32.234940 
	C320.232056,36.562340 303.661987,55.452305 302.987366,75.924469 
	C302.209106,99.540802 316.011261,118.876175 338.060120,125.122551 
	C339.748535,125.600868 341.355286,126.367416 343.000000,127.000000 
z"/>
<path fill="#FEFEFE" opacity="1.000000" stroke="none" 
	d="
M1.000000,71.000000 
	C1.000000,47.707077 1.000000,24.414156 1.000000,1.000000 
	C61.687508,1.000000 122.375099,1.000000 183.381592,1.309221 
	C179.194046,3.668790 177.608856,7.225563 177.707245,12.075941 
	C177.897003,21.432226 177.762604,30.795084 177.762604,40.483578 
	C159.633682,31.533295 155.246719,30.480471 142.524506,31.850182 
	C123.795418,33.866611 107.830193,47.456413 102.424301,65.983978 
	C97.104942,84.214981 103.275909,105.052567 118.530495,116.005173 
	C125.208939,120.800209 133.461975,123.402176 141.000000,127.000000 
	C112.645775,127.000000 84.291542,127.000000 55.672207,126.670959 
	C78.344757,122.627968 95.318260,104.894150 96.962563,82.925018 
	C98.780510,58.635998 81.745964,36.243881 58.266945,32.059139 
	C33.247822,27.599897 9.825479,41.965652 2.840554,66.022453 
	C2.348566,67.716919 1.619060,69.342430 1.000000,71.000000 
z"/>
<path fill="#898989" opacity="1.000000" stroke="none" 
	d="
M141.464645,127.000000 
	C133.461975,123.402176 125.208939,120.800209 118.530495,116.005173 
	C103.275909,105.052567 97.104942,84.214981 102.424301,65.983978 
	C107.830193,47.456413 123.795418,33.866611 142.524506,31.850182 
	C155.246719,30.480471 159.633682,31.533295 177.762604,40.483578 
	C177.762604,30.795084 177.897003,21.432226 177.707245,12.075941 
	C177.608856,7.225563 179.194046,3.668790 183.850250,1.309221 
	C185.714355,1.000000 187.428711,1.000000 189.571533,1.000000 
	C195.381821,3.780095 196.948914,8.313786 196.894684,14.170155 
	C196.698715,35.326183 196.985779,56.486927 196.760620,77.642380 
	C196.508255,101.354279 182.350052,119.680847 160.304871,125.385353 
	C158.703552,125.799713 157.057358,126.040634 155.216019,126.681091 
	C150.643097,127.000000 146.286194,127.000000 141.464645,127.000000 
M139.900375,105.915436 
	C140.541718,106.093163 141.178345,106.290596 141.825119,106.445671 
	C153.152191,109.161469 165.352737,104.620613 171.817184,95.288277 
	C178.694962,85.359253 178.681000,72.941689 171.780869,62.998947 
	C165.060181,53.314804 153.040894,48.922562 141.425507,51.906097 
	C129.374283,55.001591 121.133881,65.092056 120.182495,77.918434 
	C119.324913,89.480064 126.790276,100.427742 139.900375,105.915436 
z"/>
<path fill="#898989" opacity="1.000000" stroke="none" 
	d="
M242.464645,127.000000 
	C240.166779,126.375977 238.362854,125.641869 236.495850,125.144737 
	C214.668518,119.332710 199.653046,98.630295 201.058517,76.232468 
	C202.497879,53.294075 220.231674,34.568680 243.096741,31.843601 
	C269.675537,28.675919 293.311890,46.856613 296.838135,73.180565 
	C300.217255,98.405937 282.317505,121.929108 256.194641,126.668388 
	C251.643097,127.000000 247.286194,127.000000 242.464645,127.000000 
M276.971649,83.971687 
	C277.049683,81.811440 277.266174,79.645828 277.182861,77.491821 
	C276.700226,65.013519 268.100769,54.877579 255.357651,51.665127 
	C243.680664,48.721443 230.969376,54.227287 224.588867,64.992477 
	C218.435486,75.374481 219.892075,88.933853 228.051544,97.869400 
	C235.460022,105.982544 244.804108,108.805252 255.218735,106.540749 
	C266.785980,104.025627 273.958923,96.370247 276.971649,83.971687 
z"/>
<path fill="#898989" opacity="1.000000" stroke="none" 
	d="
M343.464661,127.000000 
	C341.355286,126.367416 339.748535,125.600868 338.060120,125.122551 
	C316.011261,118.876175 302.209106,99.540802 302.987366,75.924469 
	C303.661987,55.452305 320.232056,36.562340 341.311371,32.234940 
	C367.951691,26.765905 393.640076,44.496056 398.672791,71.800003 
	C399.000000,72.750000 399.000000,73.500000 398.829315,74.716599 
	C398.588837,75.290390 398.438629,75.466026 398.462189,75.493683 
	C398.620880,75.679977 398.816376,75.834923 399.000000,76.000000 
	C399.000000,77.714355 399.000000,79.428719 398.829224,81.659424 
	C398.772308,82.450516 398.886139,82.725258 399.000000,83.000000 
	C399.000000,84.066673 399.000000,85.133339 398.684265,86.799927 
	C393.721375,107.209915 381.885742,120.174133 362.061249,125.538269 
	C360.366394,125.996864 358.686737,126.511444 357.000000,127.000000 
	C352.643097,127.000000 348.286194,127.000000 343.464661,127.000000 
M337.010986,103.664276 
	C349.506165,109.697044 362.020142,107.916626 371.038239,98.823029 
	C379.436737,90.354233 381.626129,77.583611 376.494019,66.999687 
	C371.169861,56.019711 359.667603,49.746433 347.329437,51.093430 
	C336.258392,52.302097 326.208221,61.194855 323.362091,72.300613 
	C320.342712,84.082413 325.290680,95.832779 337.010986,103.664276 
z"/>
<path fill="#9C5889" opacity="1.000000" stroke="none" 
	d="
M1.000000,71.466858 
	C1.619060,69.342430 2.348566,67.716919 2.840554,66.022453 
	C9.825479,41.965652 33.247822,27.599897 58.266945,32.059139 
	C81.745964,36.243881 98.780510,58.635998 96.962563,82.925018 
	C95.318260,104.894150 78.344757,122.627968 55.203548,126.670959 
	C50.643101,127.000000 46.286201,127.000000 41.310356,126.663147 
	C39.751381,126.002907 38.827625,125.617706 37.868923,125.365250 
	C18.985804,120.392776 7.274101,108.270561 2.110489,89.584167 
	C1.863085,88.688858 1.375653,87.859871 1.000000,87.000000 
	C1.000000,81.977905 1.000000,76.955818 1.000000,71.466858 
M55.359413,51.885300 
	C43.200966,49.042324 31.177542,53.819881 24.633682,64.094292 
	C18.259010,74.103073 18.814558,86.927612 26.028400,96.290688 
	C33.377747,105.829651 46.348186,109.734657 57.800159,105.856194 
	C68.962791,102.075722 76.892525,91.094383 76.963554,79.318115 
	C77.039078,66.797699 69.235710,56.556992 55.359413,51.885300 
z"/>
<path fill="#FEFDFE" opacity="1.000000" stroke="none" 
	d="
M1.000000,87.468658 
	C1.375653,87.859871 1.863085,88.688858 2.110489,89.584167 
	C7.274101,108.270561 18.985804,120.392776 37.868923,125.365250 
	C38.827625,125.617706 39.751381,126.002907 40.845703,126.663147 
	C27.740013,127.000000 14.480024,127.000000 1.000000,127.000000 
	C1.000000,113.979935 1.000000,100.958626 1.000000,87.468658 
z"/>
<path fill="#FEFEFE" opacity="1.000000" stroke="none" 
	d="
M357.468658,127.000000 
	C358.686737,126.511444 360.366394,125.996864 362.061249,125.538269 
	C381.885742,120.174133 393.721375,107.209915 398.684265,87.199921 
	C399.000000,100.261787 399.000000,113.523575 399.000000,127.000000 
	C385.313171,127.000000 371.625244,127.000000 357.468658,127.000000 
z"/>
<path fill="#9A9A9A" opacity="1.000000" stroke="none" 
	d="
M399.000000,75.750000 
	C398.816376,75.834923 398.620880,75.679977 398.462189,75.493683 
	C398.438629,75.466026 398.588837,75.290390 398.829315,75.091599 
	C399.000000,75.000000 399.000000,75.500000 399.000000,75.750000 
z"/>
<path fill="#9A9A9A" opacity="1.000000" stroke="none" 
	d="
M399.000000,82.750000 
	C398.886139,82.725258 398.772308,82.450516 398.829224,82.087891 
	C399.000000,82.000000 399.000000,82.500000 399.000000,82.750000 
z"/>
<path fill="#FEFEFE" opacity="1.000000" stroke="none" 
	d="
M139.511688,105.804695 
	C126.790276,100.427742 119.324913,89.480064 120.182495,77.918434 
	C121.133881,65.092056 129.374283,55.001591 141.425507,51.906097 
	C153.040894,48.922562 165.060181,53.314804 171.780869,62.998947 
	C178.681000,72.941689 178.694962,85.359253 171.817184,95.288277 
	C165.352737,104.620613 153.152191,109.161469 141.825119,106.445671 
	C141.178345,106.290596 140.541718,106.093163 139.511688,105.804695 
z"/>
<path fill="#FEFEFE" opacity="1.000000" stroke="none" 
	d="
M276.922852,84.405563 
	C273.958923,96.370247 266.785980,104.025627 255.218735,106.540749 
	C244.804108,108.805252 235.460022,105.982544 228.051544,97.869400 
	C219.892075,88.933853 218.435486,75.374481 224.588867,64.992477 
	C230.969376,54.227287 243.680664,48.721443 255.357651,51.665127 
	C268.100769,54.877579 276.700226,65.013519 277.182861,77.491821 
	C277.266174,79.645828 277.049683,81.811440 276.922852,84.405563 
z"/>
<path fill="#FEFEFE" opacity="1.000000" stroke="none" 
	d="
M336.701904,103.454971 
	C325.290680,95.832779 320.342712,84.082413 323.362091,72.300613 
	C326.208221,61.194855 336.258392,52.302097 347.329437,51.093430 
	C359.667603,49.746433 371.169861,56.019711 376.494019,66.999687 
	C381.626129,77.583611 379.436737,90.354233 371.038239,98.823029 
	C362.020142,107.916626 349.506165,109.697044 336.701904,103.454971 
z"/>
<path fill="#FEFEFE" opacity="1.000000" stroke="none" 
	d="
M55.765167,51.958141 
	C69.235710,56.556992 77.039078,66.797699 76.963554,79.318115 
	C76.892525,91.094383 68.962791,102.075722 57.800159,105.856194 
	C46.348186,109.734657 33.377747,105.829651 26.028400,96.290688 
	C18.814558,86.927612 18.259010,74.103073 24.633682,64.094292 
	C31.177542,53.819881 43.200966,49.042324 55.765167,51.958141 
z"/>
</svg>